<svg id="arena-map" viewBox="0 0 900 520" xmlns="http://www.w3.org/2000/svg" style="width:100%;height:auto;display:block">
  <defs>
    <filter id="arena-map-shadow" x="-5%" y="-5%" width="110%" height="110%">
      <feDropShadow dx="1" dy="2" stdDeviation="3" flood-color="#000" flood-opacity=".4"/>
    </filter>
    <style>
      :root { --map-sea:#04091a; --map-ca:#070d24; --map-us:#0a1030; --map-mx:#0d1a18; --map-stroke:#1a3070; }
      [data-theme="light"] {
        --map-sea:#c8d8f0;
        --map-ca:#d8e6f8;
        --map-us:#bdd0eb;
        --map-mx:#c0d5c8;
        --map-stroke:#5878a8;
      }
      /* Arena-dot og label farger — lys modus bruker mørkere variantene */
      [data-theme="light"] .arena-circle-western  { fill: #1a5db5; }
      [data-theme="light"] .arena-label-western   { fill: #1a5db5; }
      [data-theme="light"] .arena-circle-central  { fill: #b05000; }
      [data-theme="light"] .arena-label-central   { fill: #b05000; }
      [data-theme="light"] .arena-circle-eastern  { fill: #0a7a40; }
      [data-theme="light"] .arena-label-eastern   { fill: #0a7a40; }
      .arena-dot:hover circle { r: 10; opacity: 1; }
    </style>
  </defs>
  <!-- Havbakgrunn -->
  <rect width="900" height="520" fill="var(--map-sea)" rx="4"/>
  <!-- Canada -->
  <path d="M-36.77,-2.29L-30.09,2.76L-30.05,5.24L-23.47,-2.58L-27.1,12.33L-35.28,11.44L-40.36,6.63L-40.06,-2.54L-36.77,-2.29Z M-24.26,14.32L-26.36,20.08L-19.78,27.82L-15.84,30.1L-28.95,22.09L-34.18,16.49L-26.21,13.68L-24.26,14.32Z M38.79,58.09L64.86,66.92L74.18,78.02L88.24,87.77L92.98,93.65L84.2,94.76L67.36,87.8L71.04,83.66L60.08,84.48L58.18,80.75L54.69,78.81L49.61,77.68L49.26,74.91L47.17,72.53L40.89,70.8L38.54,66.69L35.05,65.98L29.77,63.51L34.81,61.99L31.42,59.83L23.54,55.52L38.79,58.09Z M-0.34,-34.72L-9.01,-41.85L-22.87,-48.18L-28.15,-56.49L-37.27,-68.58L-49.09,-85.74L-60.4,-95.21L488.16,-95.36L494.59,-88.88L505.56,-90.64L514.48,-77.13L518.57,-58.14L519.07,-56.42L538.46,-60.68L568.41,-53.09L588.7,-37.24L615.32,-28.21L620.1,-22.34L635.46,-23.56L651.51,-22.3L661.58,-14.76L662.67,3.25L660.58,16.58L670.15,27.64L670.85,31.03L684.16,40.79L682.91,48.87L699.86,54.15L696.12,47.85L702.05,41.56L707.04,47.7L706.44,39.66L712.57,31.45L709.98,24.26L706.89,14.14L706.89,3.01L702.8,-1.79L699.56,-7.13L707.39,-16L729.37,-28.5L740.33,-46.35L735.35,-70.81L713.57,-87.75L837.24,-93.15L833.15,-93.9L833.7,-89.51L849.65,-93.65L855.28,-85.36L844.12,-74.15L856.93,-85.11L860.47,-81.09L862.66,-75.81L872.03,-84.31L882,-91.63L887.08,-86.38L888.18,-92.69L924.72,-94.36L926.26,-86.59L925.66,-84.87L932.19,-82.03L933.39,-78.8L941.96,-71.71L936.33,-65.3L943.61,-63.39L945.45,-59.8L940.67,-50.15L939.92,-49.55L942.36,-44.89L949.54,-41.02L953.53,-35.5L960.51,-33.54L964.35,-29.54L960.71,-19.29L968.08,5.36L967.84,9.16L964.64,13.07L960.81,65.03L939.27,64.74L919.58,64.43L896.31,63.4L878.56,66.03L864.7,79.57L849.2,85.9L830.76,96.6L828.76,97.02L824.58,109.94L802.69,122.58L786.74,131.47L771.94,139.54L761.57,147.37L745.12,158.16L725.58,167.18L704.99,171.5L706.89,176.85L691.83,184.33L661.68,193.75L649.76,186.34L658.99,175.24L659.53,153.29L648.27,137.41L640.19,130.2L635.16,124.47L629.97,124.81L616.72,114.34L596.48,105.04L573.05,96.71L555.2,100.94L542.19,97.7L526.09,96.11L516.03,92.43L504.51,92.35L488.71,88.02L485.47,79.29L455.51,85.06L408.26,85.06L361.05,85.06L313.8,85.06L266.59,85.06L219.34,85.06L172.13,85.06L124.88,85.06L97.46,83.75L95.42,83.58L94.37,80.47L93.08,79.37L94.32,73.92L89.59,78.53L83.66,73.01L86.35,74.26L86,66.92L83.46,69.17L73.34,69.37L70.1,59.8L70.2,56.79L61.77,57.95L57.59,60.23L49.61,58.64L48.26,57.43L48.66,52.73L36.6,52.99L36.75,41.23L33.56,42.56L29.77,40.7L32.21,30.76L43.93,32.94L39.29,28.3L41.44,20.51L33.76,29.2L22.74,32.38L27.18,25.95L26.98,19.32L12.08,9.96L16.16,8.05L28.38,11.93L17.31,6.08L18.7,1.45L10.98,6.42L2.45,10.49L-0.59,-2.39L-5.97,-7.6L-1.48,-16.13L3.7,-26.66L-0.69,-19.26L-1.33,-31.1L-0.34,-34.72Z M953.93,132.71L955.77,134.31L959.56,135.29L963.25,127.95L966.39,135.76L952.13,138.33L951.19,128.13L962.45,116.36L962.2,127.23L953.93,132.71Z M870.58,144.39L866.8,143.79L865.45,139.82L864.05,137.6L861.36,134.95L861.41,131.2L859.37,113.91L847.01,113.37L841.27,109.31L830.26,123.14L826.67,133.29L821.19,140.08L818.34,143.01L811.12,143.92L769.45,146.85L782.06,140.03L796.21,126.49L813.31,120.28L833.5,106.81L852.49,92.3L892.77,80.64L906.72,87.49L902.49,97.76L885.99,98.56L881.15,99.93L896.85,103.84L898.8,112.88L901.29,118.24L906.32,128.19L917.94,134.03L928.9,135.26L938.53,135.94L949.44,137.18L954.92,142.56L946.4,144.98L926.46,151.28L920.13,153.72L913.2,153.05L909.22,157.45L897.6,165.68L892.17,168.26L884.39,164.46L884.89,154.29L891.87,150.97L907.62,141.86L911.31,144.72L909.17,141.08L906.08,137.52L904.98,133.18L886.78,143.61L884.14,143.53L873.43,144.75L870.58,144.39Z M944.31,83.44L916.94,75.19L923.67,71.68L945.75,82.71L944.31,83.44Z M916.44,124.71L923.72,124.84L940.97,125.05L934.59,131.49L927.41,130.83L926.91,127.37L918.84,128.35L912.31,125.37L910.76,118.05L915.75,123.11L916.44,124.71Z M-3.28,0.73L-8.66,1.05L-9.81,1.42L-3.28,0.73L-3.28,0.73Z M20.05,18.81L17.31,25.5L12.52,19.66L14.27,12.91L20.05,18.81Z M942.71,112.1L943.91,109.2L945.01,109.83L942.71,112.1Z" fill="var(--map-ca)" stroke="var(--map-stroke)" stroke-width=".8" filter="url(#arena-map-shadow)"/>
  <!-- USA -->
  <path d="M765.56,146.88L803.99,146.83L817.5,141.94L820.94,140.79L825.12,134.87L828.26,126.65L839.63,111.07L845.46,113.24L855.18,111.13L861.31,126.7L861.61,134.24L862.61,136.84L866,139.22L865.75,142.8L869.34,144.05L872.13,148.9L863.26,153.44L857.67,156.06L853.29,155.16L850,157.16L847.85,154.21L842.72,161.18L836.44,163.39L833.6,163.04L831.11,164.41L823.58,171.24L820.59,181.05L819.24,182.74L821.83,190.3L830.71,192.42L828.56,189.24L825.17,195.91L815.8,197.16L812.36,194L804.04,199.92L786.69,202.27L776.07,206.98L776.37,205.91L772.04,212.3L774.73,219.66L770.79,224.98L767.05,228.3L761.87,229.75L754.99,222.58L755.99,220.93L755.84,228.47L760.02,237.73L759.92,240.33L753.39,251.68L747.71,255.61L750.06,245.35L749.66,240.92L746.07,241.53L747.46,237.38L744.27,234.7L745.12,232.42L749.41,227.16L747.61,224.53L744.27,226.31L742.13,228.85L740.14,231.38L740.73,238.62L738.54,237.99L742.13,244.12L734,240.5L733.11,236.28L729.52,240.47L741.18,245.65L740.88,250.04L737.79,248.33L744.02,254.36L737.49,253.16L742.13,259.22L730.71,255.01L740.93,260.46L751.05,269.25L748.41,263.59L750.2,270.77L743.92,269.77L737.74,270.31L744.02,272.67L747.96,273.6L746.27,280.3L739.69,278.32L740.04,281.27L732.86,283.22L739.14,288.19L729.77,290.33L724.83,293.46L720.65,295.88L703.45,307.63L699.26,310.34L691.98,315.47L683.51,316.82L683.36,318.28L682.56,320.16L677.83,324.56L675.73,326.91L676.03,329.04L673.39,333.48L671.3,338.04L684.51,365.35L685.4,372.8L682.16,366.48L680.72,362.92L691.09,384L689.29,398.75L678.28,405.88L678.72,403.79L667.21,394L665.02,389.22L662.28,385.42L654.7,378L657.74,373.59L655.94,375.06L655.45,366.18L632.62,347.08L624.59,350.57L617.76,350.48L614.62,346.06L612.13,345.76L605.65,341.83L593.14,343.3L593.04,341.28L588.25,343.36L582.97,342.81L579.68,343.38L564.58,343.81L550.72,343.24L557,346.19L558.94,349.04L562.68,349.83L558.25,351.83L566.07,356.99L564.43,359.03L559.09,356.34L551.62,353.9L551.96,358.36L543.44,358.42L536.41,353.88L527.64,349.87L516.87,352.76L500.87,351.22L500.67,348.11L491.15,353.37L485.57,351.77L482.53,359.05L467.52,366.16L463.49,364.24L463.99,367.14L458.05,369.81L456.46,370.89L451.67,378.95L450.38,381.88L451.37,391.06L451.97,397.25L436.37,393.08L426.85,389.05L422.31,380.54L415.38,371.45L407.76,362.15L396.29,351.01L387.82,350.35L376.16,354.64L370.27,359.99L354.47,353.06L344.8,339.04L326.26,326.15L307.77,326L291.86,331.55L249.35,327.94L211.51,314.27L182.2,316.3L176.37,311.46L162.06,301.69L148.61,294.75L131.81,292L129.31,283.65L120.69,276.47L113.06,263.62L103.84,251.89L107.58,251.62L106.68,248.6L115.76,244.98L110.87,244.19L104.29,247.95L96.91,245.54L92.93,238.58L84.65,220.52L79.72,208.53L81.21,205.14L80.17,190.84L76.78,176.12L80.51,166.85L83.8,140.92L84.3,129.09L92.78,129.25L82.46,126.17L82.06,120.46L80.81,116.28L73.34,98.47L92.83,99L100,98.69L99.61,104.28L98.01,110.18L99.51,106.24L103.69,103.79L102.65,108.28L100.15,113.13L98.11,114.48L104.34,111.91L105.14,105.97L107.13,100.2L103.94,98.8L103.24,94.37L103.89,92.85L101.75,88.74L124.88,85.06L172.13,85.06L219.34,85.06L266.59,85.06L313.8,85.06L361.05,85.06L408.26,85.06L455.51,85.06L485.47,79.29L488.71,88.02L504.51,92.35L516.03,92.43L526.09,96.11L542.19,97.7L555.2,100.94L573.05,96.71L596.48,105.04L616.72,114.34L629.97,124.81L635.16,124.47L640.19,130.2L648.27,137.41L659.53,153.29L658.99,175.24L649.76,186.34L661.68,193.75L691.83,184.33L706.89,176.85L704.99,171.5L725.58,167.18L745.12,158.16L761.57,147.37L765.56,146.88Z M796.01,204.92L801.65,204.5L786.54,209.54L777.82,209.52L778.77,207.05L783.6,205.55L795.57,204.33L796.01,204.92Z M102.85,98.39L104.39,101.44L101.2,98.12L103.34,95.8L102.85,98.39Z" fill="var(--map-us)" stroke="var(--map-stroke)" stroke-width=".8" filter="url(#arena-map-shadow)"/>
  <!-- Mexico -->
  <path d="M178.21,316.56L194.07,315.49L209.92,314.4L216.55,318.73L242.82,326.11L267.39,331.6L286.98,331.57L301.63,330.16L304.73,325.98L316.89,326.04L326.16,326.11L330.25,330.05L342.36,337.97L348.44,342.38L353.03,351.79L358.46,355.33L367.98,359.15L373.51,358.4L375.56,356.19L381.09,350.67L385.43,350L393.65,350.19L395.45,350.59L401.33,355.16L406.56,360.33L410.55,366.18L413.84,369.95L420.97,376.36L422.16,379.88L422.91,382.95L426.05,386.75L429.04,391.04L434.77,392.92L441.95,394.96L451.72,397.23L453.02,396.41L451.07,404.7L446.84,421.49L446.59,431.22L445.29,435.63L448.83,444.16L452.27,448.37L451.02,448.07L448.73,444.7L449.08,447.58L451.97,452.16L460.94,462.49L466.78,471.98L471.96,476.96L471.86,477.84L475.55,478.9L482.08,479.15L490.9,485.01L500.22,483.56L510.54,482.25L516.32,480.14L524.75,479.11L526.94,480.68L532.62,481.88L535.71,478.34L535.27,476.92L533.97,477.04L543.59,471.88L547.03,465.2L547.13,458.34L551.32,451.97L571.21,448.25L578.98,446.77L581.42,446.49L591.89,448.27L592.79,447.14L590.05,447.08L593.59,446.3L597.92,450.69L597.28,454.64L589.55,462L589.25,466.16L585.86,468.69L588.3,469.39L588.7,470.85L586.26,471.88L588.35,472.27L585.21,479.66L583.17,483.91L581.37,478.86L578.83,478.94L576.39,481.59L571.26,486.15L568.46,487.61L565.47,489L545.24,489L540.1,495.23L535.56,495.82L542.54,500.37L545.09,503.43L548.08,505.17L546.63,508.26L533.97,508.26L525,514.57L525.1,519.19L524,521.08L523.55,524.04L518.82,521.75L509.99,515.1L497.38,507.44L492.8,505.88L494.99,507.19L491.95,506.98L489.91,505.23L487.41,505.44L485.52,504.86L487.56,506.52L478.19,509.31L463.69,512.86L441.16,506.77L429.19,502.64L412,498.2L399.48,493.67L390.96,488.71L384.68,487.42L367.73,483.33L359.36,476.79L347,472.35L339.47,464.87L336.88,460.28L342.56,458.09L340.32,455.87L340.71,454.17L342.91,449.02L338.87,444.05L333.09,433.11L324.46,425.39L307.87,413.58L311.7,414.12L309.11,413.19L304.48,410.99L301.24,406.57L304.13,407.01L298.15,404.34L292.91,401.09L289.82,400.99L291.67,399.36L287.23,400.32L285.88,394.11L289.17,392.76L287.38,390.42L280.3,387.45L277.96,383.59L270.33,380.1L268.39,376.16L265.2,373.01L259.17,370.64L251.54,364.24L248.6,361.25L245.06,356.09L243.51,353.5L239.03,348.05L234.59,339.89L233.74,335.02L234.74,333.4L228.71,331.98L224.87,328.72L220.43,329.3L213.11,326.17L209.17,325.07L209.32,333.68L212.06,340.26L213.9,347.58L220.68,352.61L227.91,359.72L230.75,361.94L234.09,365.89L237.23,367.81L238.88,372.07L244.66,377.71L249.2,382.99L251.14,387.74L252.29,387.64L255.18,387.39L257.27,391.61L259.02,398.2L264.55,405.74L266.84,411.26L271.08,416.92L272.47,417.42L272.72,415.11L278.41,418.64L281.4,422.93L284.44,428.09L279.35,431.44L274.42,426.63L268.19,422.07L257.27,415.23L251.99,412.75L248.25,409.3L248.45,401.72L247.55,398.47L240.12,392L233.24,384.55L227.11,387.23L222.43,384.1L216.95,382.04L214.05,378.8L207.22,374.42L215.35,374.44L217.34,374.71L219.69,375.29L218.04,373.11L220.88,366.91L209.42,356.59L203.39,353.56L196.51,348.35L193.92,342.81L189.73,335.97L187.49,331.14L183.85,326.52L185.24,325.07L179.11,318.93L178.21,316.56Z" fill="var(--map-mx)" stroke="var(--map-stroke)" stroke-width=".8" filter="url(#arena-map-shadow)"/>
  <!-- Arenaer -->
  
        <g class="arena-dot" data-code="VA" onclick="openVenueModal('VA')" style="cursor:pointer">
            <circle cx="95.37" cy="80.47" r="8" fill="#4a9eff" class="arena-circle-western" stroke="rgba(0,0,0,.4)" stroke-width="1.2" opacity=".95"/>
            <text x="95.37" y="68.47" text-anchor="middle" font-family="Space Mono,monospace" font-size="11" fill="#4a9eff" class="arena-label-western" opacity=".9" stroke="var(--map-sea)" stroke-width="2.5" paint-order="stroke">Vancouver</text>
        </g>
        <g class="arena-dot" data-code="SE" onclick="openVenueModal('SE')" style="cursor:pointer">
            <circle cx="106.18" cy="107.24" r="8" fill="#4a9eff" class="arena-circle-western" stroke="rgba(0,0,0,.4)" stroke-width="1.2" opacity=".95"/>
            <text x="106.18" y="95.24" text-anchor="middle" font-family="Space Mono,monospace" font-size="11" fill="#4a9eff" class="arena-label-western" opacity=".9" stroke="var(--map-sea)" stroke-width="2.5" paint-order="stroke">Seattle</text>
        </g>
        <g class="arena-dot" data-code="SF" onclick="openVenueModal('SF')" style="cursor:pointer">
            <circle cx="111.18" cy="253.76" r="8" fill="#4a9eff" class="arena-circle-western" stroke="rgba(0,0,0,.4)" stroke-width="1.2" opacity=".95"/>
            <text x="111.18" y="241.76" text-anchor="middle" font-family="Space Mono,monospace" font-size="11" fill="#4a9eff" class="arena-label-western" opacity=".9" stroke="var(--map-sea)" stroke-width="2.5" paint-order="stroke">San Francisco Bay Area</text>
        </g>
        <g class="arena-dot" data-code="LA" onclick="openVenueModal('LA')" style="cursor:pointer">
            <circle cx="161.46" cy="298.63" r="8" fill="#4a9eff" class="arena-circle-western" stroke="rgba(0,0,0,.4)" stroke-width="1.2" opacity=".95"/>
            <text x="161.46" y="286.63" text-anchor="middle" font-family="Space Mono,monospace" font-size="11" fill="#4a9eff" class="arena-label-western" opacity=".9" stroke="var(--map-sea)" stroke-width="2.5" paint-order="stroke">Los Angeles</text>
        </g>
        <g class="arena-dot" data-code="GD" onclick="openVenueModal('GD')" style="cursor:pointer">
            <circle cx="367.44" cy="456.93" r="8" fill="#ffaa44" class="arena-circle-central" stroke="rgba(0,0,0,.4)" stroke-width="1.2" opacity=".95"/>
            <text x="367.44" y="444.93" text-anchor="middle" font-family="Space Mono,monospace" font-size="11" fill="#ffaa44" class="arena-label-central" opacity=".9" stroke="var(--map-sea)" stroke-width="2.5" paint-order="stroke">Guadalajara</text>
        </g>
        <g class="arena-dot" data-code="MX" onclick="openVenueModal('MX')" style="cursor:pointer">
            <circle cx="427.15" cy="472.43" r="8" fill="#ffaa44" class="arena-circle-central" stroke="rgba(0,0,0,.4)" stroke-width="1.2" opacity=".95"/>
            <text x="427.15" y="460.43" text-anchor="middle" font-family="Space Mono,monospace" font-size="11" fill="#ffaa44" class="arena-label-central" opacity=".9" stroke="var(--map-sea)" stroke-width="2.5" paint-order="stroke">Mexico City</text>
        </g>
        <g class="arena-dot" data-code="MO" onclick="openVenueModal('MO')" style="cursor:pointer">
            <circle cx="412" cy="399.61" r="8" fill="#ffaa44" class="arena-circle-central" stroke="rgba(0,0,0,.4)" stroke-width="1.2" opacity=".95"/>
            <text x="412" y="387.61" text-anchor="middle" font-family="Space Mono,monospace" font-size="11" fill="#ffaa44" class="arena-label-central" opacity=".9" stroke="var(--map-sea)" stroke-width="2.5" paint-order="stroke">Monterrey</text>
        </g>
        <g class="arena-dot" data-code="KA" onclick="openVenueModal('KA')" style="cursor:pointer">
            <circle cx="491.76" cy="231.63" r="8" fill="#ffaa44" class="arena-circle-central" stroke="rgba(0,0,0,.4)" stroke-width="1.2" opacity=".95"/>
            <text x="491.76" y="219.63" text-anchor="middle" font-family="Space Mono,monospace" font-size="11" fill="#ffaa44" class="arena-label-central" opacity=".9" stroke="var(--map-sea)" stroke-width="2.5" paint-order="stroke">Kansas City</text>
        </g>
        <g class="arena-dot" data-code="DA" onclick="openVenueModal('DA')" style="cursor:pointer">
            <circle cx="455.64" cy="313.87" r="8" fill="#ffaa44" class="arena-circle-central" stroke="rgba(0,0,0,.4)" stroke-width="1.2" opacity=".95"/>
            <text x="455.64" y="301.87" text-anchor="middle" font-family="Space Mono,monospace" font-size="11" fill="#ffaa44" class="arena-label-central" opacity=".9" stroke="var(--map-sea)" stroke-width="2.5" paint-order="stroke">Dallas</text>
        </g>
        <g class="arena-dot" data-code="HO" onclick="openVenueModal('HO')" style="cursor:pointer">
            <circle cx="478.93" cy="351.7" r="8" fill="#ffaa44" class="arena-circle-central" stroke="rgba(0,0,0,.4)" stroke-width="1.2" opacity=".95"/>
            <text x="478.93" y="339.7" text-anchor="middle" font-family="Space Mono,monospace" font-size="11" fill="#ffaa44" class="arena-label-central" opacity=".9" stroke="var(--map-sea)" stroke-width="2.5" paint-order="stroke">Houston</text>
        </g>
        <g class="arena-dot" data-code="TO" onclick="openVenueModal('TO')" style="cursor:pointer">
            <circle cx="700.36" cy="167.1" r="8" fill="#44cc88" class="arena-circle-eastern" stroke="rgba(0,0,0,.4)" stroke-width="1.2" opacity=".95"/>
            <text x="700.36" y="155.1" text-anchor="middle" font-family="Space Mono,monospace" font-size="11" fill="#44cc88" class="arena-label-eastern" opacity=".9" stroke="var(--map-sea)" stroke-width="2.5" paint-order="stroke">Toronto</text>
        </g>
        <g class="arena-dot" data-code="BO" onclick="openVenueModal('BO')" style="cursor:pointer">
            <circle cx="813.27" cy="189.32" r="8" fill="#44cc88" class="arena-circle-eastern" stroke="rgba(0,0,0,.4)" stroke-width="1.2" opacity=".95"/>
            <text x="813.27" y="177.32" text-anchor="middle" font-family="Space Mono,monospace" font-size="11" fill="#44cc88" class="arena-label-eastern" opacity=".9" stroke="var(--map-sea)" stroke-width="2.5" paint-order="stroke">Boston</text>
        </g>
        <g class="arena-dot" data-code="NY" onclick="openVenueModal('NY')" style="cursor:pointer">
            <circle cx="774.36" cy="207.33" r="8" fill="#44cc88" class="arena-circle-eastern" stroke="rgba(0,0,0,.4)" stroke-width="1.2" opacity=".95"/>
            <text x="774.36" y="195.33" text-anchor="middle" font-family="Space Mono,monospace" font-size="11" fill="#44cc88" class="arena-label-eastern" opacity=".9" stroke="var(--map-sea)" stroke-width="2.5" paint-order="stroke">New York</text>
        </g>
        <g class="arena-dot" data-code="PH" onclick="openVenueModal('PH')" style="cursor:pointer">
            <circle cx="759.22" cy="219.98" r="8" fill="#44cc88" class="arena-circle-eastern" stroke="rgba(0,0,0,.4)" stroke-width="1.2" opacity=".95"/>
            <text x="759.22" y="207.98" text-anchor="middle" font-family="Space Mono,monospace" font-size="11" fill="#44cc88" class="arena-label-eastern" opacity=".9" stroke="var(--map-sea)" stroke-width="2.5" paint-order="stroke">Philadelphia</text>
        </g>
        <g class="arena-dot" data-code="AT" onclick="openVenueModal('AT')" style="cursor:pointer">
            <circle cx="631.38" cy="301.14" r="8" fill="#44cc88" class="arena-circle-eastern" stroke="rgba(0,0,0,.4)" stroke-width="1.2" opacity=".95"/>
            <text x="631.38" y="289.14" text-anchor="middle" font-family="Space Mono,monospace" font-size="11" fill="#44cc88" class="arena-label-eastern" opacity=".9" stroke="var(--map-sea)" stroke-width="2.5" paint-order="stroke">Atlanta</text>
        </g>
        <g class="arena-dot" data-code="MI" onclick="openVenueModal('MI')" style="cursor:pointer">
            <circle cx="689" cy="396.22" r="8" fill="#44cc88" class="arena-circle-eastern" stroke="rgba(0,0,0,.4)" stroke-width="1.2" opacity=".95"/>
            <text x="689" y="384.22" text-anchor="middle" font-family="Space Mono,monospace" font-size="11" fill="#44cc88" class="arena-label-eastern" opacity=".9" stroke="var(--map-sea)" stroke-width="2.5" paint-order="stroke">Miami</text>
        </g>
</svg>